<svg width="190" height="190" viewBox="0 0 190 190" fill="none" xmlns="http://www.w3.org/2000/svg">
<g opacity="0.5" clip-path="url(#clip0_55_24)">
<path d="M156.503 65.9421L136.812 60.3713L129.217 44.9309L92.2966 34.4858L77.7387 43.6592L58.0477 38.0885C51.2789 36.1735 44.174 40.1448 42.2591 46.9136L21.3689 120.755C19.454 127.524 23.4253 134.629 30.1941 136.544L128.649 164.397C135.418 166.312 142.523 162.341 144.438 155.572L165.328 81.7307C167.243 74.9619 163.272 67.857 156.503 65.9421ZM132.131 152.09L82.9033 138.163L84.6442 132.01C67.4145 127.136 57.7068 109.768 62.5812 92.5385C67.4556 75.3089 84.823 65.6012 102.053 70.4756L103.794 64.3221L153.021 78.249L132.131 152.09ZM124.116 109.947C128.99 92.7174 119.282 75.35 102.053 70.4756L98.9191 81.5518C109.995 84.6853 116.173 95.7373 113.039 106.814C109.906 117.89 98.8539 124.067 87.7777 120.934L84.6442 132.01C101.874 136.884 119.241 127.177 124.116 109.947ZM73.6574 95.6721C70.5239 106.748 76.7015 117.8 87.7777 120.934L98.9191 81.5518C87.8429 78.4183 76.7909 84.5959 73.6574 95.6721Z" fill="white"/>
</g>
<defs>
<clipPath id="clip0_55_24">
<rect width="153.479" height="153.479" fill="white" transform="translate(42.1382 0.357849) rotate(15.7966)"/>
</clipPath>
</defs>
</svg>
